<?xml version="1.0" standalone="no"?>
<!DOCTYPE svg PUBLIC "-//W3C//DTD SVG 20010904//EN"
 "http://www.w3.org/TR/2001/REC-SVG-20010904/DTD/svg10.dtd">
<svg version="1.0" xmlns="http://www.w3.org/2000/svg"
 width="296.000000pt" height="27.000000pt" viewBox="0 0 296.000000 27.000000"
 preserveAspectRatio="xMidYMid meet">

<g transform="translate(0.000000,27.000000) scale(0.100000,-0.100000)"
fill="#000000" stroke="none">
<path d="M16 254 c-12 -12 -16 -37 -16 -110 0 -53 5 -104 10 -115 10 -18 26
-19 458 -19 335 0 451 3 460 12 8 8 12 49 12 120 0 96 -2 108 -19 118 -13 6
-174 10 -455 10 -382 0 -436 -2 -450 -16z m181 -49 c-4 -8 -14 -15 -23 -15
-16 0 -16 2 1 20 20 22 31 20 22 -5z m133 -15 c-18 -11 -22 -7 -14 14 5 13 10
14 18 6 8 -8 7 -13 -4 -20z m127 -2 c-3 -7 -5 -2 -5 12 0 14 2 19 5 13 2 -7 2
-19 0 -25z m83 3 c0 -13 -2 -13 -9 -2 -7 11 -9 11 -14 0 -3 -8 -6 -5 -6 8 -1
16 3 21 14 17 8 -4 15 -14 15 -23z m17 -3 c-3 -7 -5 -2 -5 12 0 14 2 19 5 13
2 -7 2 -19 0 -25z m233 3 c0 -13 -2 -13 -9 -2 -7 11 -9 11 -14 0 -3 -8 -6 -5
-6 8 -1 16 3 21 14 17 8 -4 15 -14 15 -23z m-410 2 c0 -7 -4 -13 -9 -13 -5 0
-11 6 -14 13 -3 8 1 14 9 14 8 0 14 -6 14 -14z m40 -2 c0 -4 -6 -8 -14 -8 -8
0 -12 6 -9 14 5 13 23 9 23 -6z m17 -3 c-3 -8 -6 -5 -6 6 -1 11 2 17 5 13 3
-3 4 -12 1 -19z m63 3 c0 -4 -6 -8 -14 -8 -8 0 -12 6 -9 14 5 13 23 9 23 -6z
m100 10 c0 -5 -7 -11 -15 -15 -15 -5 -20 5 -8 17 9 10 23 9 23 -2z m60 -8 c0
-14 -2 -15 -9 -4 -7 11 -9 11 -14 0 -4 -10 -6 -9 -6 4 -1 9 6 17 14 17 8 0 15
-8 15 -17z m40 0 c0 -14 -2 -15 -9 -4 -7 11 -9 11 -14 0 -4 -10 -6 -9 -6 4 -1
9 6 17 14 17 8 0 15 -8 15 -17z m130 8 c0 -5 -7 -11 -15 -15 -9 -3 -15 0 -15
9 0 8 7 15 15 15 8 0 15 -4 15 -9z m-606 -51 c-4 -18 -1 -36 6 -45 21 -26 -14
-55 -66 -55 -38 0 -45 4 -59 30 -18 34 -19 54 -5 81 9 15 22 19 70 19 l60 0
-6 -30z m143 -55 c15 -44 10 -57 -12 -29 -14 18 -16 18 -29 1 -22 -29 -26 -19
-9 28 18 54 31 54 50 0z m241 38 c-23 -6 -23 -15 2 -36 11 -9 17 -23 14 -32
-6 -16 -54 -21 -54 -6 0 5 9 7 20 4 26 -7 26 12 -1 31 -27 18 -18 46 13 45 17
-1 18 -2 6 -6z m54 -38 c-2 -15 3 -32 10 -36 10 -7 9 -9 -3 -9 -19 0 -29 20
-29 57 0 15 5 23 13 20 7 -2 11 -16 9 -32z m-209 4 c14 -22 2 -49 -23 -49 -11
0 -20 -7 -20 -16 0 -8 -4 -12 -10 -9 -10 6 -14 78 -5 87 11 11 48 2 58 -13z
m80 0 c14 -22 2 -49 -23 -49 -11 0 -20 -7 -20 -15 0 -8 -4 -15 -10 -15 -5 0
-10 22 -10 48 0 45 1 48 26 47 15 0 31 -7 37 -16z m205 12 c20 -12 11 -55 -12
-59 -27 -6 -48 25 -35 49 10 20 26 24 47 10z m62 -3 c0 -4 -4 -8 -10 -8 -5 0
-10 -11 -10 -25 0 -14 -4 -25 -10 -25 -10 0 -14 52 -5 62 8 8 35 5 35 -4z m58
0 c18 -18 14 -26 -15 -30 l-28 -4 25 -12 25 -12 -25 3 c-18 1 -26 9 -28 26 -5
34 23 52 46 29z"/>
<path d="M330 100 c0 -5 5 -10 10 -10 6 0 10 5 10 10 0 6 -4 10 -10 10 -5 0
-10 -4 -10 -10z"/>
<path d="M414 96 c-6 -17 2 -36 17 -36 12 0 12 37 -1 45 -6 3 -13 -1 -16 -9z"/>
<path d="M496 103 c-12 -12 -6 -43 9 -43 8 0 15 9 15 19 0 21 -13 34 -24 24z"/>
<path d="M704 97 c-6 -17 2 -37 16 -37 15 0 19 29 5 40 -12 10 -16 9 -21 -3z"/>
<path d="M830 100 c0 -5 5 -10 10 -10 6 0 10 5 10 10 0 6 -4 10 -10 10 -5 0
-10 -4 -10 -10z"/>
<path d="M1026 254 c-12 -12 -16 -37 -16 -110 0 -53 5 -104 10 -115 10 -18 26
-19 458 -19 335 0 451 3 460 12 8 8 12 49 12 120 0 96 -2 108 -19 118 -13 6
-174 10 -455 10 -382 0 -436 -2 -450 -16z m308 -49 c-5 -11 -2 -13 10 -9 9 3
16 2 16 -4 0 -11 -25 -10 -36 0 -3 4 -3 11 1 17 9 16 15 13 9 -4z m79 -10 c-7
-21 -13 -19 -13 6 0 11 4 18 10 14 5 -3 7 -12 3 -20z m60 0 c-7 -21 -13 -19
-13 6 0 11 4 18 10 14 5 -3 7 -12 3 -20z m-281 -22 c21 -13 42 -23 48 -23 5 0
10 -4 10 -9 0 -15 -41 -24 -53 -12 -8 8 -24 -2 -59 -36 l-48 -47 0 66 c0 73
12 87 51 61 l24 -16 -25 27 c-21 24 -22 26 -5 20 11 -4 37 -18 57 -31z m198
28 c0 -6 -4 -13 -10 -16 -5 -3 -10 1 -10 9 0 9 5 16 10 16 6 0 10 -4 10 -9z
m57 -13 c-3 -8 -6 -5 -6 6 -1 11 2 17 5 13 3 -3 4 -12 1 -19z m83 5 c0 -14 -2
-15 -9 -4 -7 11 -9 11 -14 0 -4 -10 -6 -9 -6 4 -1 9 6 17 14 17 8 0 15 -8 15
-17z m40 0 c0 -14 -2 -15 -9 -4 -7 11 -9 11 -14 0 -4 -10 -6 -9 -6 4 -1 9 6
17 14 17 8 0 15 -8 15 -17z m-185 -63 c3 -6 -1 -7 -9 -4 -18 7 -21 14 -7 14 6
0 13 -4 16 -10z m217 -30 c2 -22 0 -40 -4 -40 -5 0 -8 18 -8 40 0 22 2 40 4
40 2 0 6 -18 8 -40z m-276 14 c-8 -21 11 -54 31 -54 9 0 14 -3 10 -6 -9 -10
-45 6 -51 23 -7 16 1 53 11 53 3 0 2 -7 -1 -16z m441 -36 c-2 -13 -4 -5 -4 17
-1 22 1 32 4 23 2 -10 2 -28 0 -40z m-350 26 c-3 -4 -2 -15 4 -25 10 -20 -4
-28 -16 -9 -8 12 1 40 11 40 4 0 4 -3 1 -6z m43 -19 c0 -8 -3 -16 -7 -18 -5
-3 -8 5 -8 18 0 13 3 21 8 18 4 -2 7 -10 7 -18z m60 14 c0 -8 5 -7 16 1 12 11
15 11 12 0 -2 -7 3 -15 11 -18 10 -3 12 0 8 12 -4 9 -3 16 2 16 15 0 9 -81 -6
-87 -22 -9 -39 13 -24 31 9 11 9 16 0 21 -6 4 -15 2 -19 -5 -5 -8 -9 -3 -12
14 -3 14 -1 26 3 26 5 0 9 -5 9 -11z m107 5 c-3 -4 -2 -15 4 -25 6 -11 6 -19
0 -19 -5 0 -12 7 -15 16 -6 16 0 34 11 34 4 0 3 -3 0 -6z m86 -30 c-4 -52 -13
-55 -13 -6 0 23 4 42 8 42 5 0 7 -16 5 -36z m37 11 c0 -32 -6 -32 -12 0 -3 14
-1 25 3 25 5 0 9 -11 9 -25z m80 0 c0 -14 -5 -25 -11 -25 -5 0 -7 5 -4 10 3 6
-1 10 -10 10 -10 0 -13 -5 -9 -12 4 -7 3 -8 -5 -4 -14 9 -5 26 15 26 8 0 12 5
9 10 -3 6 -1 10 4 10 6 0 11 -11 11 -25z m46 12 c13 16 13 15 2 -12 -6 -16
-18 -37 -27 -45 -13 -13 -14 -13 -4 0 6 9 7 23 2 35 -11 29 -10 43 2 22 10
-18 11 -18 25 0z m-393 -17 c3 -11 1 -18 -4 -14 -5 3 -9 12 -9 20 0 20 7 17
13 -6z"/>
<path d="M1546 53 c-11 -11 -6 -23 9 -23 8 0 15 4 15 9 0 13 -16 22 -24 14z"/>
<path d="M2026 254 c-12 -12 -16 -37 -16 -110 0 -53 5 -104 10 -115 10 -18 26
-19 458 -19 335 0 451 3 460 12 8 8 12 49 12 120 0 96 -2 108 -19 118 -13 6
-174 10 -455 10 -382 0 -436 -2 -450 -16z m296 -71 c-3 -16 -7 -22 -10 -15 -4
13 4 42 11 42 2 0 2 -12 -1 -27z m35 -3 c10 -13 8 -16 -6 -16 -13 0 -17 6 -13
19 2 10 5 16 6 15 1 -2 7 -10 13 -18z m-117 -65 c0 -35 -4 -66 -8 -69 -4 -3
-28 0 -53 5 -96 20 -89 15 -89 64 0 48 -5 45 85 63 60 13 65 8 65 -63z m190
52 c0 -7 -4 -6 -10 3 -8 12 -10 12 -10 1 0 -8 -3 -12 -6 -8 -9 9 6 28 17 22 5
-4 9 -12 9 -18z m159 -4 c2 -1 -6 -1 -18 0 -11 1 -21 8 -21 15 0 12 3 12 18 1
9 -7 19 -14 21 -16z m78 5 c-3 -8 -6 -5 -6 6 -1 11 2 17 5 13 3 -3 4 -12 1
-19z m80 0 c-3 -8 -6 -5 -6 6 -1 11 2 17 5 13 3 -3 4 -12 1 -19z m-412 -106
c-5 -5 -25 43 -25 61 1 7 7 -3 16 -22 8 -19 12 -36 9 -39z m40 -1 c-3 -3 -8 5
-12 17 -3 12 -9 19 -14 16 -10 -6 -12 19 -2 29 4 4 13 -7 20 -24 7 -18 11 -35
8 -38z m28 62 c-7 -2 -13 -12 -13 -20 0 -9 -3 -14 -6 -10 -10 10 4 37 18 36
10 0 10 -2 1 -6z m117 -29 c0 -31 -3 -35 -22 -32 -30 4 -37 38 -9 45 12 3 21
9 21 14 0 5 2 9 5 9 3 0 5 -16 5 -36z m210 26 c-13 -8 -12 -11 4 -23 21 -16
14 -38 -12 -36 -15 1 -14 2 1 6 17 4 17 6 2 23 -17 19 -13 40 8 40 7 0 6 -4
-3 -10z m45 -35 c0 -14 -2 -25 -6 -25 -8 0 -18 48 -11 55 9 8 15 -4 17 -30z
m-368 -12 c-3 -10 -5 -4 -5 12 0 17 2 24 5 18 2 -7 2 -21 0 -30z m52 15 c-1
-17 -2 -19 -6 -5 -6 24 -21 21 -26 -5 -4 -20 -4 -19 -6 5 -1 21 4 27 19 27 14
0 20 -6 19 -22z m111 12 c0 -5 -7 -7 -15 -4 -10 4 -15 0 -15 -11 0 -11 5 -15
15 -11 8 3 15 1 15 -4 0 -6 -9 -10 -20 -10 -15 0 -20 7 -20 25 0 18 5 25 20
25 11 0 20 -4 20 -10z m33 -5 c4 10 10 15 13 12 3 -3 -1 -15 -9 -27 -13 -18
-15 -19 -21 -5 -3 9 -6 22 -5 28 0 7 4 3 8 -7 7 -19 8 -19 14 -1z m62 6 c-3
-5 -1 -12 5 -16 16 -10 12 -25 -7 -25 -14 0 -15 2 -4 9 9 6 10 11 2 15 -14 9
-14 26 0 26 5 0 8 -4 4 -9z m165 -1 c0 -5 -7 -7 -15 -4 -10 4 -15 0 -15 -11 0
-11 5 -15 15 -11 8 3 15 1 15 -4 0 -6 -9 -10 -20 -10 -15 0 -20 7 -20 25 0 18
5 25 20 25 11 0 20 -4 20 -10z m22 -16 c-3 -17 -7 -22 -12 -13 -9 13 -2 39 10
39 4 0 5 -12 2 -26z m63 15 c4 -6 -3 -13 -16 -16 -22 -6 -22 -7 -3 -14 16 -6
16 -8 2 -8 -21 -1 -32 15 -24 34 6 17 32 20 41 4z m-279 -25 c-4 -9 -9 -15
-11 -12 -3 3 -3 13 1 22 4 9 9 15 11 12 3 -3 3 -13 -1 -22z"/>
<path d="M2143 143 c-34 -7 -32 -53 2 -53 14 0 28 0 32 0 5 0 9 13 10 30 3 31
1 32 -44 23z"/>
<path d="M2480 85 c0 -8 7 -15 15 -15 8 0 15 7 15 15 0 8 -7 15 -15 15 -8 0
-15 -7 -15 -15z"/>
</g>
</svg>
